<mxfile host="Electron" modified="2023-09-05T22:37:12.037Z" agent="Mozilla/5.0 (Macintosh; Intel Mac OS X 10_15_7) AppleWebKit/537.36 (KHTML, like Gecko) draw.io/21.2.1 Chrome/112.0.5615.87 Electron/24.1.2 Safari/537.36" etag="hVcvVPmzD1YhjOD1xJ-X" version="21.2.1" type="device">
  <diagram name="PÃ¡gina-1" id="02QQTQO9qK3oBrQuLag6">
    <mxGraphModel dx="2120" dy="2480" grid="1" gridSize="10" guides="1" tooltips="1" connect="1" arrows="1" fold="1" page="1" pageScale="1" pageWidth="827" pageHeight="1169" math="0" shadow="0">
      <root>
        <mxCell id="0" />
        <mxCell id="1" parent="0" />
        <mxCell id="A1NNTCfy7w9Hnv3MBqFs-9" value="" style="group;movable=1;resizable=1;rotatable=1;deletable=1;editable=1;locked=0;connectable=1;" connectable="0" vertex="1" parent="1">
          <mxGeometry x="10" y="-390" width="1620" height="115" as="geometry" />
        </mxCell>
        <mxCell id="A1NNTCfy7w9Hnv3MBqFs-10" value="" style="group" vertex="1" connectable="0" parent="A1NNTCfy7w9Hnv3MBqFs-9">
          <mxGeometry width="1620" height="45" as="geometry" />
        </mxCell>
        <mxCell id="A1NNTCfy7w9Hnv3MBqFs-11" value="" style="endArrow=none;dashed=1;html=1;rounded=0;dashPattern=12 12;strokeColor=#0000FF;strokeWidth=3;" edge="1" parent="A1NNTCfy7w9Hnv3MBqFs-10">
          <mxGeometry width="50" height="50" relative="1" as="geometry">
            <mxPoint as="sourcePoint" />
            <mxPoint x="1620" as="targetPoint" />
          </mxGeometry>
        </mxCell>
        <mxCell id="A1NNTCfy7w9Hnv3MBqFs-12" value="Perception layer" style="text;html=1;strokeColor=none;fillColor=none;align=center;verticalAlign=middle;whiteSpace=wrap;rounded=0;fontSize=25;fontColor=#0000FF;" vertex="1" parent="A1NNTCfy7w9Hnv3MBqFs-10">
          <mxGeometry y="15" width="220" height="30" as="geometry" />
        </mxCell>
        <mxCell id="A1NNTCfy7w9Hnv3MBqFs-13" value="&lt;h1&gt;&lt;span style=&quot;font-weight: 400;&quot;&gt;&lt;font color=&quot;#0000ff&quot; style=&quot;font-size: 17px;&quot;&gt;This layer can contain sensors, actuators and multifunction devices&lt;/font&gt;&lt;/span&gt;&lt;/h1&gt;" style="text;html=1;strokeColor=none;fillColor=none;spacing=5;spacingTop=-20;whiteSpace=wrap;overflow=hidden;rounded=0;" vertex="1" parent="A1NNTCfy7w9Hnv3MBqFs-9">
          <mxGeometry x="20" y="45" width="300" height="70" as="geometry" />
        </mxCell>
        <mxCell id="A1NNTCfy7w9Hnv3MBqFs-15" value="" style="group" vertex="1" connectable="0" parent="1">
          <mxGeometry x="10" y="-730" width="1620" height="150" as="geometry" />
        </mxCell>
        <mxCell id="A1NNTCfy7w9Hnv3MBqFs-5" value="" style="group" vertex="1" connectable="0" parent="A1NNTCfy7w9Hnv3MBqFs-15">
          <mxGeometry width="1620" height="50" as="geometry" />
        </mxCell>
        <mxCell id="A1NNTCfy7w9Hnv3MBqFs-14" value="" style="group" vertex="1" connectable="0" parent="A1NNTCfy7w9Hnv3MBqFs-5">
          <mxGeometry width="1620" height="50" as="geometry" />
        </mxCell>
        <mxCell id="A1NNTCfy7w9Hnv3MBqFs-6" value="" style="endArrow=none;dashed=1;html=1;rounded=0;dashPattern=12 12;strokeColor=#0000FF;strokeWidth=3;" edge="1" parent="A1NNTCfy7w9Hnv3MBqFs-14">
          <mxGeometry width="50" height="50" relative="1" as="geometry">
            <mxPoint as="sourcePoint" />
            <mxPoint x="1620" as="targetPoint" />
          </mxGeometry>
        </mxCell>
        <mxCell id="A1NNTCfy7w9Hnv3MBqFs-7" value="Network layer" style="text;html=1;strokeColor=none;fillColor=none;align=center;verticalAlign=middle;whiteSpace=wrap;rounded=0;fontSize=25;fontColor=#0000FF;" vertex="1" parent="A1NNTCfy7w9Hnv3MBqFs-14">
          <mxGeometry x="10" y="20" width="180" height="30" as="geometry" />
        </mxCell>
        <mxCell id="A1NNTCfy7w9Hnv3MBqFs-8" value="&lt;h1&gt;&lt;span style=&quot;font-weight: 400;&quot;&gt;&lt;font color=&quot;#0000ff&quot; style=&quot;font-size: 17px;&quot;&gt;This layer can contain &amp;nbsp;network devices such gateways, routers, local networks, AP, mobile access and also fog devices&lt;/font&gt;&lt;/span&gt;&lt;/h1&gt;" style="text;html=1;strokeColor=none;fillColor=none;spacing=5;spacingTop=-20;whiteSpace=wrap;overflow=hidden;rounded=0;" vertex="1" parent="A1NNTCfy7w9Hnv3MBqFs-15">
          <mxGeometry x="20" y="50" width="300" height="100" as="geometry" />
        </mxCell>
        <mxCell id="A1NNTCfy7w9Hnv3MBqFs-17" value="" style="group" vertex="1" connectable="0" parent="1">
          <mxGeometry x="10" y="-1040" width="1620" height="156" as="geometry" />
        </mxCell>
        <mxCell id="A1NNTCfy7w9Hnv3MBqFs-1" value="" style="group" vertex="1" connectable="0" parent="A1NNTCfy7w9Hnv3MBqFs-17">
          <mxGeometry width="1620" height="55" as="geometry" />
        </mxCell>
        <mxCell id="A1NNTCfy7w9Hnv3MBqFs-16" value="" style="group" vertex="1" connectable="0" parent="A1NNTCfy7w9Hnv3MBqFs-1">
          <mxGeometry width="1620" height="55" as="geometry" />
        </mxCell>
        <mxCell id="A1NNTCfy7w9Hnv3MBqFs-2" value="" style="endArrow=none;dashed=1;html=1;rounded=0;dashPattern=12 12;strokeColor=#0000FF;strokeWidth=3;" edge="1" parent="A1NNTCfy7w9Hnv3MBqFs-16">
          <mxGeometry width="50" height="50" relative="1" as="geometry">
            <mxPoint as="sourcePoint" />
            <mxPoint x="1620" as="targetPoint" />
          </mxGeometry>
        </mxCell>
        <mxCell id="A1NNTCfy7w9Hnv3MBqFs-3" value="Cloud layer" style="text;html=1;strokeColor=none;fillColor=none;align=center;verticalAlign=middle;whiteSpace=wrap;rounded=0;fontSize=25;fontColor=#0000FF;" vertex="1" parent="A1NNTCfy7w9Hnv3MBqFs-16">
          <mxGeometry y="25" width="180" height="30" as="geometry" />
        </mxCell>
        <mxCell id="A1NNTCfy7w9Hnv3MBqFs-4" value="&lt;h1&gt;&lt;span style=&quot;font-weight: 400;&quot;&gt;&lt;font color=&quot;#0000ff&quot; style=&quot;font-size: 17px;&quot;&gt;This layer can contain &amp;nbsp;cloud platforms with several cloud functions, Internet network and other networks&lt;/font&gt;&lt;/span&gt;&lt;/h1&gt;" style="text;html=1;strokeColor=none;fillColor=none;spacing=5;spacingTop=-20;whiteSpace=wrap;overflow=hidden;rounded=0;" vertex="1" parent="A1NNTCfy7w9Hnv3MBqFs-17">
          <mxGeometry x="20" y="56" width="300" height="100" as="geometry" />
        </mxCell>
      </root>
    </mxGraphModel>
  </diagram>
</mxfile>
